<?xml version="1.0" encoding="UTF-8" standalone="no"?>
<!DOCTYPE svg PUBLIC "-//W3C//DTD SVG 1.1//EN" "http://www.w3.org/Graphics/SVG/1.1/DTD/svg11.dtd">
<svg width="100%" height="100%" viewBox="0 0 24 24" version="1.1" xmlns="http://www.w3.org/2000/svg" xmlns:xlink="http://www.w3.org/1999/xlink" xml:space="preserve" xmlns:serif="http://www.serif.com/" style="fill-rule:evenodd;clip-rule:evenodd;stroke-linejoin:round;stroke-miterlimit:2;">
    <path d="M15,7L20.5,7L15,1.5L15,7M8,0L16,0L22,6L22,18C22,19.097 21.097,20 20,20L8,20C6.89,20 6,19.1 6,18L6,2C6,0.903 6.903,0 8,0M4,4L4,22L20,22L20,24L4,24C2.903,24 2,23.097 2,22L2,4L4,4Z" style="fill:white;fill-rule:nonzero;"/>
</svg>
