<?xml version="1.0" encoding="UTF-8" standalone="no"?>
<!DOCTYPE svg PUBLIC "-//W3C//DTD SVG 1.1//EN" "http://www.w3.org/Graphics/SVG/1.1/DTD/svg11.dtd">
<svg width="100%" height="100%" viewBox="0 0 24 24" version="1.1" xmlns="http://www.w3.org/2000/svg" xmlns:xlink="http://www.w3.org/1999/xlink" xml:space="preserve" xmlns:serif="http://www.serif.com/" style="fill-rule:evenodd;clip-rule:evenodd;stroke-linejoin:round;stroke-miterlimit:2;">
    <path d="M11,18L13,18L13,16L11,16L11,18M12,6C9.806,6 8,7.806 8,10L10,10C10,8.903 10.903,8 12,8C13.097,8 14,8.903 14,10C14,12 11,11.75 11,15L13,15C13,12.75 16,12.5 16,10C16,7.806 14.194,6 12,6M5,3L19,3C20.097,3 21,3.903 21,5L21,19C21,20.097 20.097,21 19,21L5,21C3.903,21 3,20.097 3,19L3,5C3,3.903 3.903,3 5,3Z" style="fill:white;fill-rule:nonzero;"/>
</svg>
